<svg width="47" height="25" viewBox="0 0 47 25" fill="none" xmlns="http://www.w3.org/2000/svg">
<path d="M6.79545 24H0.75L8.60227 0.727272H16.0909L23.9432 24H17.8977L12.4318 6.59091H12.25L6.79545 24ZM5.98864 14.8409H18.625V19.1136H5.98864V14.8409Z" fill="#001AFF"/>
<path d="M46.4801 9.15909H40.7983C40.7225 8.57576 40.5672 8.04924 40.3324 7.57954C40.0975 7.10985 39.7869 6.70833 39.4006 6.375C39.0142 6.04167 38.5559 5.78788 38.0256 5.61364C37.5028 5.43182 36.9233 5.34091 36.2869 5.34091C35.1581 5.34091 34.1847 5.61742 33.3665 6.17045C32.5559 6.72348 31.9309 7.52273 31.4915 8.56818C31.0597 9.61364 30.8438 10.8788 30.8438 12.3636C30.8438 13.9091 31.0634 15.2045 31.5028 16.25C31.9498 17.2879 32.5748 18.072 33.3778 18.6023C34.1884 19.125 35.1468 19.3864 36.2528 19.3864C36.8741 19.3864 37.4384 19.3068 37.946 19.1477C38.4612 18.9886 38.9119 18.7576 39.2983 18.4545C39.6922 18.1439 40.0142 17.7689 40.2642 17.3295C40.5218 16.8826 40.6998 16.3788 40.7983 15.8182L46.4801 15.8523C46.3816 16.8826 46.0824 17.8977 45.5824 18.8977C45.09 19.8977 44.4119 20.8106 43.5483 21.6364C42.6847 22.4545 41.6316 23.1061 40.3892 23.5909C39.1544 24.0758 37.7377 24.3182 36.1392 24.3182C34.0331 24.3182 32.1468 23.8561 30.4801 22.9318C28.821 22 27.5104 20.6439 26.5483 18.8636C25.5862 17.0833 25.1051 14.9167 25.1051 12.3636C25.1051 9.80303 25.5938 7.63258 26.571 5.85227C27.5483 4.07197 28.8703 2.7197 30.5369 1.79545C32.2036 0.871211 34.071 0.40909 36.1392 0.40909C37.5483 0.40909 38.8513 0.60606 40.0483 1C41.2453 1.38636 42.2983 1.95454 43.2074 2.70454C44.1165 3.44697 44.8551 4.35985 45.4233 5.44318C45.9915 6.52652 46.3438 7.76515 46.4801 9.15909Z" fill="#C60404"/>
</svg>
